<?xml version="1.0" encoding="UTF-8"?>
<svg id="logo_2" data-name="logo 2" xmlns="http://www.w3.org/2000/svg" xmlns:xlink="http://www.w3.org/1999/xlink" viewBox="0 0 330.28 184.48">
  <defs>
    <style>
      .cls-1 {
        fill: #fdef42;
      }

      .cls-1, .cls-2, .cls-3, .cls-4, .cls-5, .cls-6, .cls-7 {
        stroke-width: 0px;
      }

      .cls-8 {
        letter-spacing: -.03em;
      }

      .cls-2 {
        fill: #e1000f;
      }

      .cls-3, .cls-9 {
        fill: none;
      }

      .cls-4 {
        fill: #e31b23;
      }

      .cls-10 {
        clip-path: url(#clippath-1);
      }

      .cls-5 {
        fill: #00853f;
      }

      .cls-11 {
        fill: #1d1d1b;
        font-family: BebasNeue-Regular, 'Bebas Neue';
        font-size: 27.67px;
      }

      .cls-6 {
        fill: #000091;
      }

      .cls-12 {
        letter-spacing: -.07em;
      }

      .cls-7 {
        fill: #fff;
      }

      .cls-13 {
        filter: url(#drop-shadow-2);
      }

      .cls-14 {
        letter-spacing: -.03em;
      }

      .cls-15 {
        letter-spacing: -.03em;
      }

      .cls-16 {
        clip-path: url(#clippath);
      }

      .cls-17 {
        letter-spacing: -.02em;
      }

      .cls-18 {
        letter-spacing: -.08em;
      }

      .cls-19 {
        letter-spacing: -.02em;
      }

      .cls-20 {
        letter-spacing: -.02em;
      }

      .cls-21 {
        letter-spacing: -.03em;
      }

      .cls-9 {
        stroke: rgba(255, 255, 255, 0);
        stroke-miterlimit: 10;
        stroke-width: .03px;
      }
    </style>
    <clipPath id="clippath">
      <rect class="cls-3" x="654.86" y="201.37" width="499.98" height="572.54"/>
    </clipPath>
    <clipPath id="clippath-1">
      <rect class="cls-3" x="654.86" y="201.37" width="499.98" height="572.54"/>
    </clipPath>
    <filter id="drop-shadow-2" filterUnits="userSpaceOnUse">
      <feOffset dx="1.54" dy="1.54"/>
      <feGaussianBlur result="blur" stdDeviation="3.84"/>
      <feFlood flood-color="#000" flood-opacity=".45"/>
      <feComposite in2="blur" operator="in"/>
      <feComposite in="SourceGraphic"/>
    </filter>
  </defs>
  <g id="layer1">
    <g id="g182">
      <g class="cls-16">
        <g id="g184">
          <g id="g190">
            <path id="path192" class="cls-9" d="M-1085.44-904.92h3980.29V1880.61H-1085.44V-904.92Z"/>
          </g>
        </g>
      </g>
    </g>
    <g id="g198">
      <g class="cls-10">
        <g id="g200">
          <g id="g206">
            <path id="path208" class="cls-9" d="M-1085.44-904.92h3980.29V1880.61H-1085.44V-904.92Z"/>
          </g>
        </g>
      </g>
    </g>
  </g>
  <g>
    <text class="cls-11" transform="translate(11.76 174.2)"><tspan class="cls-8" x="0" y="0">A</tspan><tspan class="cls-21" x="10.32" y="0">SSOCI</tspan><tspan class="cls-12" x="54.44" y="0">A</tspan><tspan class="cls-21" x="63.57" y="0">TION D</tspan><tspan class="cls-19" x="113.35" y="0">E</tspan><tspan class="cls-15" x="122.76" y="0">S SÉNÉGA</tspan><tspan class="cls-17" x="196.07" y="0">L</tspan><tspan class="cls-21" x="205.01" y="0">AIS </tspan><tspan class="cls-14" x="233.37" y="0">D</tspan><tspan class="cls-18" x="243.75" y="0">&apos;</tspan><tspan class="cls-20" x="246.8" y="0">AMIENS</tspan></text>
    <g class="cls-13">
      <g>
        <g>
          <path class="cls-5" d="M81.88,9.35c15.88,0,23.83,8.46,23.83,25.37v100.89h-26.9v-41.7h-19.41v41.7h-26.9V34.72c0-16.91,7.94-25.37,23.83-25.37h25.56ZM59.39,73.15h19.41V31.45c0-1.02-.35-1.92-1.06-2.69-.71-.77-1.57-1.15-2.59-1.15h-12.11c-1.03,0-1.89.38-2.59,1.15-.71.77-1.06,1.67-1.06,2.69v41.7Z"/>
          <path class="cls-5" d="M110.32,140.22h-36.13v-41.7h-10.18v41.7H27.88V34.72c0-19.33,10.1-29.98,28.44-29.98h25.56c18.34,0,28.44,10.65,28.44,29.98v105.5ZM83.41,130.99h17.68V34.72c0-14.35-5.93-20.75-19.22-20.75h-25.56c-13.29,0-19.22,6.4-19.22,20.75v96.28h17.68v-41.7h28.63v41.7ZM83.41,77.76h-28.63V31.45c0-2.18.79-4.19,2.27-5.81,1.58-1.73,3.65-2.65,5.99-2.65h12.11c2.33,0,4.4.92,5.99,2.65,1.49,1.63,2.27,3.63,2.27,5.81v46.31ZM64.01,68.54h10.18v-36.32h-10.18v36.32Z"/>
        </g>
        <g>
          <path class="cls-1" d="M199.48,43.94h-25.56v-9.8c0-1.02-.35-1.92-1.06-2.69-.71-.77-1.57-1.15-2.59-1.15h-10.57c-1.03,0-1.89.38-2.59,1.15-.71.77-1.06,1.67-1.06,2.69v22.1c0,1.03.35,1.92,1.06,2.69.7.77,1.57,1.15,2.59,1.15h17.3c15.88.26,23.83,8.71,23.83,25.37v26.71c0,16.91-7.94,25.37-23.83,25.37h-22.68c-15.89,0-23.83-8.46-23.83-25.37v-12.88h25.56v13.84c0,1.03.35,1.92,1.06,2.69.7.77,1.57,1.15,2.59,1.15h11.91c1.02,0,1.89-.38,2.59-1.15.7-.77,1.06-1.66,1.06-2.69v-24.41c0-1.02-.35-1.92-1.06-2.69-.71-.77-1.57-1.15-2.59-1.15h-17.3c-15.89,0-23.83-8.46-23.83-25.37v-24.79c0-16.91,7.94-25.37,23.83-25.37h21.33c15.88,0,23.83,8.46,23.83,25.37v9.22Z"/>
          <path class="cls-1" d="M177,142.14h-22.68c-18.34,0-28.44-10.65-28.44-29.98v-17.49h34.78v17.68h9.99v-22.87h-16.33c-18.34,0-28.44-10.65-28.44-29.98v-24.79c0-19.33,10.1-29.98,28.44-29.98h21.33c18.34,0,28.44,10.65,28.44,29.98v13.84h-34.78v-13.64h-8.65v20.56h16.33c18.37.3,28.44,10.94,28.44,29.98v26.71c0,19.33-10.1,29.98-28.44,29.98ZM135.1,103.9v8.26c0,14.35,5.93,20.75,19.22,20.75h22.68c13.29,0,19.22-6.4,19.22-20.75v-26.71c0-14.14-5.95-20.54-19.29-20.75h-17.22c-2.34,0-4.41-.92-6-2.65-1.48-1.61-2.26-3.62-2.26-5.8v-22.1c0-2.18.79-4.19,2.27-5.81,1.58-1.73,3.65-2.65,5.99-2.65h10.57c2.33,0,4.4.92,5.99,2.65,1.49,1.63,2.27,3.63,2.27,5.81v5.19h16.33v-4.61c0-14.35-5.93-20.75-19.22-20.75h-21.33c-13.29,0-19.22,6.4-19.22,20.75v24.79c0,14.35,5.93,20.75,19.22,20.75h17.3c2.33,0,4.4.92,5.99,2.65,1.49,1.63,2.27,3.63,2.27,5.81v24.41c0,2.17-.78,4.18-2.26,5.8-1.6,1.74-3.67,2.65-6,2.65h-11.91c-2.34,0-4.41-.92-6-2.65-1.48-1.61-2.26-3.62-2.26-5.8v-9.22h-16.33Z"/>
        </g>
        <g>
          <path class="cls-4" d="M272.69,9.35c15.88,0,23.83,8.46,23.83,25.37v100.89h-26.9v-41.7h-19.41v41.7h-26.9V34.72c0-16.91,7.94-25.37,23.83-25.37h25.56ZM250.21,73.15h19.41V31.45c0-1.02-.35-1.92-1.06-2.69-.71-.77-1.57-1.15-2.59-1.15h-12.11c-1.03,0-1.89.38-2.59,1.15-.71.77-1.06,1.67-1.06,2.69v41.7Z"/>
          <path class="cls-4" d="M301.14,140.22h-36.13v-41.7h-10.18v41.7h-36.13V34.72c0-19.33,10.1-29.98,28.44-29.98h25.56c18.34,0,28.44,10.65,28.44,29.98v105.5ZM274.23,130.99h17.68V34.72c0-14.35-5.93-20.75-19.22-20.75h-25.56c-13.29,0-19.22,6.4-19.22,20.75v96.28h17.68v-41.7h28.63v41.7ZM274.23,77.76h-28.63V31.45c0-2.18.79-4.19,2.27-5.81,1.58-1.73,3.65-2.65,5.99-2.65h12.11c2.33,0,4.4.92,5.99,2.65,1.49,1.63,2.27,3.63,2.27,5.81v46.31ZM254.82,68.54h10.18v-36.32h-10.18v36.32Z"/>
        </g>
      </g>
      <g>
        <path class="cls-7" d="M291.1,60.43c.77-.16,1.58-.37,2.34-.3,3.02.26,5.58,1.48,7.72,3.67,1.73,1.76,3.35,3.57,4.28,5.88,1.11,2.77,2.26,5.52,3.21,8.34,1.06,3.17,1.86,6.42,3.82,9.24,1.62,2.33,3.86,3.23,6.5,3.51-.16-.12-.36-.16-.52-.26-1.09-.69-2.38-1.22-3.24-2.15-1.6-1.71-2.87-3.71-3.52-6.03-.75-2.69-1.66-5.32-2.37-8.01-.94-3.6-2.27-7.02-4.33-10.13-1.61-2.45-3.82-4.38-6.31-5.85-1.91-1.12-4.07-1.94-6.21-2.52-1.42-.38-2.31-1.01-2.97-2.28-.85-1.67-1.73-3.34-1.89-5.25-.08-.95.03-1.91.06-3-2.6,2.91-4.02,6.27-4.93,9.95-.59-.16-1.13-.24-1.62-.46-.32-.14-.67-.43-.8-.74-.82-1.86-1.56-3.76-2.37-5.63-.55-1.31-1.2-2.58-1.75-3.9-1.22-2.85-2.42-5.72-3.62-8.57-.04.01-.1.03-.15.05,1.1,6.16,2.2,12.32,3.31,18.53-2.08.42-3.47,1.66-4.47,3.36-1.06,1.8-.9,3.64.07,5.49-2.61.97-4.01,2.71-3.94,5.49,0,.2-.17.46-.35.6-1.06.86-2.17,1.65-3.21,2.51-.74.62-1.39,1.33-2.09,2-1.79,1.7-3.25,3.85-5.89,4.43-.27.06-.52.24-.77.37-1.26.65-1.37,1.22-.34,2.19.62.58.9,1.25.75,2.06-.19,1.06-.48,2.11-.67,3.17-.06.32-.03.78.16,1.02,1.27,1.59,2.57,3.17,3.91,4.69.29.32.84.63,1.23.59,1.58-.19,3.15-.47,4.69-.83.29-.05.67-.57.67-.87-.04-1.96.94-3.3,2.62-4.03,1.14-.49,2.44-.62,3.7-.79.44-.06,1.01.17,1.38.45,1.39,1.02,2.92,1.71,4.62,1.86.83.07,1.18.47,1.35,1.14.13.51.26,1.09.17,1.59-.2,1.08-.55,2.12-.86,3.31,5.76-3.03,9.41-7.6,10.78-14.14.32.81.64,1.62.95,2.44,1.26-2.3-.57-6.89-3.26-8.03.05.35.11.68.14,1.02.33,3.18-.19,6.04-2.57,8.49-2.89,2.97-7.95,2.81-10.32-.57-.64-.91-1.06-1.96-1.57-2.92-.1.29-.22.64-.35,1-3.01-1.1-4.44-1.14-5.49-.15,1.37.14,2.58.55,3.48,1.63-3.05,1.69-6.57,2.84-6.28,7.23-.62.21-1.17.41-1.73.57-1.94.58-2.17.51-3.07-.66-.38-.49-.34-.81.17-1.09.5-.28.99-.57,1.5-.81.61-.29,1.24-.54,1.87-.81-.32-.12-.6-.13-.86-.07-1.13.27-2.26.57-3.39.85-.23.05-.58.18-.7.08-.59-.57-1.22-1.14-1.64-1.83-.18-.31.09-.92.21-1.38.49-1.85.77-3.67-.56-5.38.61-.23,1.2-.4,1.72-.67.83-.43,1.78-.78,2.38-1.42,2.53-2.7,5.27-5.15,8.19-7.41.43-.33.61-.63.61-1.18,0-2.25,1.18-3.68,3.29-3.99.38-.06.83.07,1.17.24,1.06.56,2.04,1.23,3.12,1.75,2.33,1.12,4.82,1.56,7.4,1.6-.25-.13-.52-.21-.79-.28-3.25-.94-6.16-2.47-8.29-5.19-.5-.65-.86-1.48-1.07-2.28-.28-1.04.24-2.25.98-2.72-.47,2.59-.2,3.78,1.04,4.6.04-1.79.3-2.59,1.12-3.4-.42,2.32.49,4.04,2.21,5.37,2.26,1.73,4.74,3,7.6,3.36.11.01.24-.03.38-.05-1.39-.7-2.77-1.27-4.03-2.04-1.59-.97-2.56-2.44-2.57-3.52,1.81.71,2.44.75,4.61.3-1.27-2.32-1.23-4.79-.85-7.31.34-2.27,1.77-5.99,2.7-6.91-.25,2.04.39,3.78,1.36,5.48,1.29,2.27,1.63,4.7.82,7.23-.21.65-.36,1.31-.51,1.85,1.54.93,3.17,1.82,4.71,2.84,2.06,1.38,3.79,3.07,4.99,5.34,2.18,4.08,1.97,8.13.22,12.24-.37.86-.81,1.68-1.21,2.52,5.58-6.33,5.94-12.87.68-19.62.51.42.9.89,1.31,1.31,1.38,1.42,2.53,2.96,3.2,4.86.83,2.39,1,4.8.35,7.21-1.45,5.42-4.87,9.2-10,11.31-2.29.94-4.75,1.48-7.12,2.23-2.32.73-4.69,1.35-6.92,2.27-1.7.71-3.39,1.63-4.83,2.78-4.7,3.72-7.22,8.5-6.34,14.65.23,1.65.97,3.12,2.07,4.5-.06-1.67-.18-3.22-.16-4.76.01-.93.09-1.83.23-2.67.87-5.34,4.14-9.08,9.3-11.42,2.48-1.12,5.2-1.75,7.81-2.58,2.05-.65,4.13-1.21,6.15-1.93,1.8-.64,3.49-1.53,4.8-2.98.76-.85,1.54-1.69,2.37-2.62-1.14,3.33-3.26,5.76-6.24,7.33-1.8.94-3.74,1.65-5.67,2.26-2.84.89-5.71,1.66-8.36,3.08-2.22,1.18-3.87,2.92-5.15,4.81,1.98-1.1,3.99-2.46,6.19-3.39,2.1-.89,4.35-1.45,6.58-1.98,3.07-.73,6.12-1.49,8.94-2.94.76-.39,1.53-.8,2.19-1.33,2.84-2.26,4.43-5.29,5.12-8.8.3-1.55.52-3.11.78-4.67.02.02.06.03.06.05.03.11.06.22.07.33.33,3.69-.36,7.19-1.92,10.54-1.5,3.2-3.89,5.51-7.09,6.92-1.91.85-3.92,1.45-5.9,2.15-2.02.71-4.07,1.36-6.07,2.12-2.2.84-4.15,2.1-5.87,3.71-2.51,2.35-3.99,5.2-4.36,8.82.14-.26.21-.34.25-.44,1.32-2.96,3.64-4.83,6.62-5.86,3.39-1.18,6.96-1.24,10.49-1.37,2.98-.11,5.99-.1,8.67-1.66,1.41-.82,2.82-1.7,4.05-2.77,1.2-1.05,2.15-2.37,3.22-3.57,0,.03.08.12.1.23.12.67.28,1.34.33,2.01.26,3.54-1.03,6.51-3.35,9.09-.34.38-.67.77-1,1.16.05.07.11.14.18.2.54-.34,1.06-.73,1.63-1.03,1.89-1,3.44-2.42,4.71-4.12,2.46-3.28,3.38-7.09,3.24-11.09-.09-2.57-.55-5.13-1-7.66-.21-1.18-.61-2.41-1.26-3.4-1.1-1.66-2.2-3.3-2.78-5.22-.9-2.99-1.73-6-2.57-9.01-.65-2.33-1.78-4.43-3.2-6.34-1.97-2.66-4.63-4.5-7.78-5.51-1.09-.35-2.33-.28-3.58-.4.29-.19.53-.45.82-.52ZM305.79,90.33c.24-1.3.39-2.63.68-3.98.12.9.29,1.79.35,2.7.22,3.56-.25,6.99-2.08,10.12-1.27,2.18-3.01,3.86-5.15,5.22-2.16,1.36-4.5,1.92-6.91,2.47-1.88.43-3.74.4-5.66.38,2.48-.9,4.95-1.59,7.24-2.67,6.1-2.87,10.23-7.44,11.53-14.25Z"/>
        <path class="cls-4" d="M304.74,99.17c-1.27,2.18-3.01,3.86-5.15,5.22-2.16,1.36-4.5,1.92-6.91,2.47-1.88.43-3.74.4-5.66.38,2.48-.9,4.95-1.59,7.24-2.67,6.1-2.87,10.23-7.44,11.53-14.25.24-1.3.39-2.63.68-3.98.12.9.29,1.79.35,2.7.22,3.56-.25,6.99-2.08,10.12Z"/>
        <path class="cls-7" d="M272.98,69.72c2.08.29,4,.56,5.93.83,0,.03,0,.11-.01.12-1.5.43-2.6,1.53-3.91,2.28-.45.26-1.11.21-1.66.19-.38-.01-.76-.21-1.14-.35-1.12-.41-2.12-.18-3.09.5.45-1.09,1.12-1.96,2.27-2.35-.26-2.1,1.4-3.35,3.44-2.76,1.22.35,2.43.78,3.6,1.35-.84-.16-1.68-.38-2.53-.46-.71-.07-1.43-.03-2.14.07-.27.04-.5.37-.77.58ZM275.35,71.04c-1.64-.53-2.35-.44-2.86.35.94.63,1.86.53,2.86-.35Z"/>
        <path class="cls-7" d="M286.49,62.22c-1.56-2.65-1.13-5.26-.47-7.94,1.74,1.47,2.36,4.91.47,7.94Z"/>
        <path class="cls-1" d="M302.62,93.97c-1.5,3.2-3.89,5.51-7.09,6.92-1.91.85-3.92,1.45-5.9,2.15-2.02.71-4.07,1.36-6.07,2.12-2.2.84-4.15,2.1-5.87,3.71-2.51,2.35-3.99,5.2-4.36,8.82-.94-.25-2.31-5.56,1.29-11.55,1.98-1.1,3.99-2.46,6.19-3.39,2.1-.89,4.35-1.45,6.58-1.98,3.07-.73,6.12-1.49,8.94-2.94.76-.39,1.53-.8,2.19-1.33,2.84-2.26,4.43-5.29,5.12-8.8.3-1.55.52-3.11.78-4.67.02.02.06.03.06.05.03.11.06.22.07.33.33,3.69-.36,7.19-1.92,10.54Z"/>
        <path class="cls-5" d="M300.03,88.66c-1.14,3.33-3.26,5.76-6.24,7.33-1.8.94-3.74,1.65-5.67,2.26-2.84.89-5.71,1.66-8.36,3.08-2.22,1.18-3.87,2.92-5.15,4.81-3.66,1.71-4.8,3.24-5.02,4.05.87-5.34,4.14-9.08,9.3-11.42,2.48-1.12,5.2-1.75,7.81-2.58,2.05-.65,4.13-1.21,6.15-1.93,1.8-.64,3.49-1.53,4.8-2.98.76-.85,1.54-1.69,2.37-2.62Z"/>
        <path class="cls-7" d="M258.65,83.44c1.13-1.69,1.08-2.26-.29-2.4.24-.25.42-.49.65-.66.62-.47,1.53-.38,2.01.16.44.5.44,1.41-.17,1.92-.61.5-1.37.83-2.06,1.23-.05-.08-.09-.16-.14-.24Z"/>
      </g>
      <polygon class="cls-5" points="289.42 100.78 289.65 101.48 290.38 101.48 289.79 101.91 290.02 102.61 289.42 102.18 288.83 102.61 289.06 101.91 288.46 101.48 289.2 101.48 289.42 100.78"/>
      <g>
        <path class="cls-7" d="M60.79,66.45c-1.06-.59-1.81-1.13-2.35-2.08-.58-1.03-1.46-1.89-2.21-2.83-.06.05-.11.1-.17.15.66,1.36,1.31,2.73,2,4.07.13.25.42.44.66.62,3.57,2.76,7.14,5.51,10.71,8.27.36.27.68.59,1.23,1.07-1.98,0-3.7-.03-5.42.01-.88.02-1.77.11-2.37,1.03.6.41,1.16.78,1.71,1.15.41.27.82.54,1.23.81,2.27,1.51,2.27,1.7,1.86,4.4-.21,1.39-.73,2.14-2.13,2.63-1.66.58-3.19,1.54-4.73,2.42-.47.27-.83.8-1.15,1.27-.29.41-.09.7.42.73.76.03,1.45-.09,1.96-.77,1.38-1.83,3.52-2.36,5.52-3.09.23-.08.64.14.9.32,2.77,1.94,3.17,6.14.85,8.68-.16-.92-.33-1.83-.49-2.75-.11,0-.22-.02-.33-.03-.11,2.21-.55,4.25-2.78,5.41-.88-2.37-2.87-3.26-5.12-3.78-3.32-.77-4.56-2.79-4.08-5.71.25-1.52.92-3.07,1.77-4.37.92-1.4,2.27-2.52,3.43-3.75-2.38-.6-4.92-1.24-7.47-1.88-.02.07-.05.13-.07.2,1.74.74,3.49,1.47,5.36,2.26-1.8,1.27-3.23,2.75-4.14,4.66-.9,1.9-1.34,3.87-.63,6.02-7.24-5.07-10.87-9.25-7.49-20.06-.24.33-.37.46-.45.62-1.22,2.43-2.15,4.93-2.21,7.7-.06,2.72.8,5.15,2.33,7.32,1.39,1.98,2.97,3.82,4.44,5.75,1.62,2.11,3.09,4.31,3.36,7.04.51,5.05-2.14,9.78-6.75,12.1.18-1.03.43-2.03.54-3.04.47-4.4-1.18-8.25-3.25-11.94-2.13-3.79-4.42-7.5-6.52-11.31-1.41-2.56-2.33-5.33-2.57-8.28-.34-4.23.98-7.97,3.33-11.42.16-.23.31-.46.46-.69,0-.01,0-.05-.06-.3-1.36,1-2.64,1.95-3.99,2.94-1.86-1.82-3.47-3.92-3.14-6.75.49-4.26,5.13-6.4,8.96-4.22.89.51,1.66,1.23,2.55,1.91-.08-.19-.12-.38-.22-.52-2.18-3.33-6.28-4.52-9.56-2.78-2.27,1.2-3.31,3.21-3.53,5.67-.25,2.79.62,5.25,2.38,7.45-5.89,5.45-8.44,11.98-6.47,19.99-.28-7.2,2.08-13.29,7.72-18.3-5.44,10.67-6.28,21.11.11,31.6-9.55-6.02-13.99-14.12-11.1-25.43-1.12,2.14-1.86,4.34-2.22,6.68-.76,4.92.86,9.14,3.93,12.86,2.13,2.58,4.43,5.01,6.61,7.54.62.71,1.16,1.51,1.63,2.33,1.84,3.21,1.86,6.15.1,9.6-.91-1.25-1.74-2.51-2.69-3.68-2.73-3.35-5.55-6.63-8.25-10.01-2.29-2.86-4.23-5.96-5.31-9.5-1.5-4.91-.82-9.63,1.4-14.18,1.53-3.14,3.56-5.94,5.85-8.55.28-.32.56-.63.92-1.05-5.28,2.35-13.24,12.52-10.31,24.04-2-2.47-3.33-5.08-3.78-8.09-.79-5.39.99-10.09,4-14.43,2.39-3.44,5.37-6.29,8.91-8.54.16-.1.31-.23.42-.42-4.28.95-7.39,3.68-10.34,6.91-.11-3.11.55-5.9,2.06-8.4,3.97-6.55,9.82-10.33,17.42-11.23,6.81-.81,12.29,1.74,16.54,7.05.15.18.3.36.52.5-.32-2.09-1.29-3.83-2.88-5.46,3.34-.18,6.29.36,8.76,2.54,2.37,2.1,3.51,4.86,3.85,7.92.19,1.71.03,3.47.03,5.37ZM46.98,62.71c-2.73,2.02-5.07,4.36-6.42,7.53-1.75,4.1-1.41,8.21.15,12.25.82,2.12,1.92,4.13,2.89,6.19.1-.05.21-.09.31-.14-.08-.25-.16-.49-.25-.74-.55-1.62-1.17-3.22-1.64-4.86-1.45-5.07-1.41-10.07,1.23-14.77,1.07-1.9,2.46-3.62,3.73-5.47ZM46.72,55.57c-7.18-7.56-20.67-4.42-25.11,3.03,7.66-6.05,15.87-8.09,25.11-3.03ZM53.24,71.16c.42-.18.73-.25.98-.42.66-.46,1.19-.35,1.77.2.74.69,1.57,1.28,2.34,1.93,1.06.89,2.11,1.79,3.24,2.75,0-.21.02-.29,0-.32-1.91-2.19-3.84-4.37-5.74-6.57-.19-.22-.39-.54-.38-.81.04-1.32-.59-2.09-2-2.34.7,1.42.61,1.64-1,2.2-.91.32-1.82.64-2.96,1.05,1.51.44,2.75.8,4.02,1.17-.08.37-.16.69-.26,1.16ZM35.47,62.97c1.92-1.26,3.99-1.57,6.09-1.82.53-.06,1.02-.42,1.55-.65-1.12-1.87-3.5-2.67-5.49-1.98-1.67.59-2.43,2.06-2.16,4.45Z"/>
        <path class="cls-6" d="M46.04,113.8c-.36,1.31-.91,2.57-1.38,3.85-1-4.47-3.31-8.2-5.54-11.97-2.15-3.64-4.27-7.29-5.47-11.39-1.58-5.41-1.23-10.75.58-16.19.45,4.55,2.28,8.44,4.38,12.24,2.03,3.64,4.15,7.23,5.98,10.96,1.94,3.95,2.65,8.16,1.45,12.5Z"/>
        <path class="cls-2" d="M61.53,107.75c-.76,2.43-2.43,4.06-4.63,5.2-.65.34-1.33.6-2.12.95.45-2.04.63-3.91.05-5.79-.08-.25.02-.61.13-.87,1.74-3.78,2.48-7.66,1.14-11.74-.02-.05.02-.11.04-.16,3.64,2.42,6.83,7.86,5.4,12.4Z"/>
        <path class="cls-7" d="M70.9,80.38c.1,1.79.03,3.38-1.09,4.69-.19.22-.58.27-.88.4-.1-.31-.33-.63-.29-.92.13-1,.37-1.98.54-2.98.17-.95,1.1-.69,1.72-1.19Z"/>
      </g>
    </g>
    <polygon class="cls-5" points="164.89 63.02 167.16 70 174.5 70 168.56 74.32 170.83 81.3 164.89 76.98 158.95 81.3 161.22 74.32 155.28 70 162.62 70 164.89 63.02"/>
  </g>
</svg>